<mxfile host="app.diagrams.net" agent="Mozilla/5.0 (Windows NT 10.0; Win64; x64) AppleWebKit/537.36 (KHTML, like Gecko) Chrome/131.0.0.0 Safari/537.36" version="25.0.3">
  <diagram name="Page-1" id="2YBvvXClWsGukQMizWep">
    <mxGraphModel dx="973" dy="616" grid="1" gridSize="10" guides="1" tooltips="1" connect="1" arrows="1" fold="1" page="1" pageScale="1" pageWidth="850" pageHeight="1100" math="0" shadow="0">
      <root>
        <mxCell id="0" />
        <mxCell id="1" parent="0" />
        <mxCell id="Jm7EUICJISlEGoCHI4fa-1" value="user: User" style="shape=umlLifeline;perimeter=lifelinePerimeter;whiteSpace=wrap;html=1;container=0;dropTarget=0;collapsible=0;recursiveResize=0;outlineConnect=0;portConstraint=eastwest;newEdgeStyle={&quot;edgeStyle&quot;:&quot;elbowEdgeStyle&quot;,&quot;elbow&quot;:&quot;vertical&quot;,&quot;curved&quot;:0,&quot;rounded&quot;:0};" parent="1" vertex="1">
          <mxGeometry x="130" y="200" width="100" height="400" as="geometry" />
        </mxCell>
        <mxCell id="Jm7EUICJISlEGoCHI4fa-2" value="" style="html=1;points=[];perimeter=orthogonalPerimeter;outlineConnect=0;targetShapes=umlLifeline;portConstraint=eastwest;newEdgeStyle={&quot;edgeStyle&quot;:&quot;elbowEdgeStyle&quot;,&quot;elbow&quot;:&quot;vertical&quot;,&quot;curved&quot;:0,&quot;rounded&quot;:0};" parent="Jm7EUICJISlEGoCHI4fa-1" vertex="1">
          <mxGeometry x="45" y="78" width="10" height="282" as="geometry" />
        </mxCell>
        <mxCell id="Jm7EUICJISlEGoCHI4fa-3" value="Web Page" style="shape=umlLifeline;perimeter=lifelinePerimeter;whiteSpace=wrap;html=1;container=0;dropTarget=0;collapsible=0;recursiveResize=0;outlineConnect=0;portConstraint=eastwest;newEdgeStyle={&quot;edgeStyle&quot;:&quot;elbowEdgeStyle&quot;,&quot;elbow&quot;:&quot;vertical&quot;,&quot;curved&quot;:0,&quot;rounded&quot;:0};" parent="1" vertex="1">
          <mxGeometry x="300" y="200" width="100" height="400" as="geometry" />
        </mxCell>
        <mxCell id="Jm7EUICJISlEGoCHI4fa-4" value="" style="html=1;points=[];perimeter=orthogonalPerimeter;outlineConnect=0;targetShapes=umlLifeline;portConstraint=eastwest;newEdgeStyle={&quot;edgeStyle&quot;:&quot;elbowEdgeStyle&quot;,&quot;elbow&quot;:&quot;vertical&quot;,&quot;curved&quot;:0,&quot;rounded&quot;:0};" parent="Jm7EUICJISlEGoCHI4fa-3" vertex="1">
          <mxGeometry x="45" y="79" width="10" height="281" as="geometry" />
        </mxCell>
        <mxCell id="Jm7EUICJISlEGoCHI4fa-5" value="Controller" style="shape=umlLifeline;perimeter=lifelinePerimeter;whiteSpace=wrap;html=1;container=0;dropTarget=0;collapsible=0;recursiveResize=0;outlineConnect=0;portConstraint=eastwest;newEdgeStyle={&quot;edgeStyle&quot;:&quot;elbowEdgeStyle&quot;,&quot;elbow&quot;:&quot;vertical&quot;,&quot;curved&quot;:0,&quot;rounded&quot;:0};" parent="1" vertex="1">
          <mxGeometry x="495" y="200" width="100" height="400" as="geometry" />
        </mxCell>
        <mxCell id="Jm7EUICJISlEGoCHI4fa-6" value="" style="html=1;points=[];perimeter=orthogonalPerimeter;outlineConnect=0;targetShapes=umlLifeline;portConstraint=eastwest;newEdgeStyle={&quot;edgeStyle&quot;:&quot;elbowEdgeStyle&quot;,&quot;elbow&quot;:&quot;vertical&quot;,&quot;curved&quot;:0,&quot;rounded&quot;:0};" parent="Jm7EUICJISlEGoCHI4fa-5" vertex="1">
          <mxGeometry x="45" y="100" width="10" height="220" as="geometry" />
        </mxCell>
        <mxCell id="Jm7EUICJISlEGoCHI4fa-7" value="User opens webpage" style="html=1;verticalAlign=bottom;startArrow=oval;endArrow=block;startSize=8;edgeStyle=elbowEdgeStyle;elbow=horizontal;curved=0;rounded=0;" parent="1" edge="1">
          <mxGeometry x="-0.397" y="2" relative="1" as="geometry">
            <mxPoint x="80" y="269" as="sourcePoint" />
            <mxPoint x="179.5" y="269" as="targetPoint" />
            <mxPoint as="offset" />
            <Array as="points">
              <mxPoint x="140" y="269" />
            </Array>
          </mxGeometry>
        </mxCell>
        <mxCell id="Jm7EUICJISlEGoCHI4fa-8" value="Selects Events tab" style="html=1;verticalAlign=bottom;endArrow=block;edgeStyle=elbowEdgeStyle;elbow=vertical;curved=0;rounded=0;" parent="1" edge="1">
          <mxGeometry x="0.027" relative="1" as="geometry">
            <mxPoint x="355" y="318" as="sourcePoint" />
            <Array as="points">
              <mxPoint x="540" y="318" />
              <mxPoint x="450" y="318" />
              <mxPoint x="450" y="266" />
            </Array>
            <mxPoint x="540" y="318" as="targetPoint" />
            <mxPoint as="offset" />
          </mxGeometry>
        </mxCell>
        <mxCell id="Jm7EUICJISlEGoCHI4fa-9" value="Formatted events data" style="html=1;verticalAlign=bottom;endArrow=open;dashed=1;endSize=8;edgeStyle=elbowEdgeStyle;elbow=vertical;curved=0;rounded=0;entryX=0.864;entryY=0.648;entryDx=0;entryDy=0;entryPerimeter=0;align=center;fontSize=10;" parent="1" edge="1">
          <mxGeometry x="-0.0381" relative="1" as="geometry">
            <mxPoint x="360.0000000000001" y="373.27200000000005" as="targetPoint" />
            <Array as="points">
              <mxPoint x="418.36" y="373" />
            </Array>
            <mxPoint x="540" y="373" as="sourcePoint" />
            <mxPoint as="offset" />
          </mxGeometry>
        </mxCell>
        <mxCell id="Jm7EUICJISlEGoCHI4fa-13" value="" style="endArrow=classic;html=1;rounded=0;dashed=1;" parent="1" edge="1">
          <mxGeometry width="50" height="50" relative="1" as="geometry">
            <mxPoint x="345" y="390" as="sourcePoint" />
            <mxPoint x="184" y="390" as="targetPoint" />
          </mxGeometry>
        </mxCell>
        <mxCell id="Jm7EUICJISlEGoCHI4fa-16" value="" style="rounded=0;whiteSpace=wrap;html=1;" parent="1" vertex="1">
          <mxGeometry x="350" y="310" width="10" height="70" as="geometry" />
        </mxCell>
        <mxCell id="Jm7EUICJISlEGoCHI4fa-19" value="" style="endArrow=none;html=1;rounded=0;" parent="1" edge="1">
          <mxGeometry width="50" height="50" relative="1" as="geometry">
            <mxPoint x="219" y="240" as="sourcePoint" />
            <mxPoint x="219" y="200" as="targetPoint" />
          </mxGeometry>
        </mxCell>
        <mxCell id="Jm7EUICJISlEGoCHI4fa-20" value="" style="endArrow=none;html=1;rounded=0;" parent="1" edge="1">
          <mxGeometry width="50" height="50" relative="1" as="geometry">
            <mxPoint x="142" y="240" as="sourcePoint" />
            <mxPoint x="142" y="200" as="targetPoint" />
          </mxGeometry>
        </mxCell>
        <mxCell id="Jm7EUICJISlEGoCHI4fa-21" value="" style="endArrow=none;html=1;rounded=0;" parent="1" edge="1">
          <mxGeometry width="50" height="50" relative="1" as="geometry">
            <mxPoint x="309" y="240" as="sourcePoint" />
            <mxPoint x="309" y="200" as="targetPoint" />
          </mxGeometry>
        </mxCell>
        <mxCell id="Jm7EUICJISlEGoCHI4fa-22" value="" style="endArrow=none;html=1;rounded=0;" parent="1" edge="1">
          <mxGeometry width="50" height="50" relative="1" as="geometry">
            <mxPoint x="390" y="241" as="sourcePoint" />
            <mxPoint x="390" y="201" as="targetPoint" />
          </mxGeometry>
        </mxCell>
        <mxCell id="Jm7EUICJISlEGoCHI4fa-23" value="User clicks on &quot;View Events&quot; tab" style="html=1;verticalAlign=bottom;endArrow=block;edgeStyle=elbowEdgeStyle;elbow=horizontal;curved=0;rounded=0;fontSize=10;align=center;" parent="1" source="Jm7EUICJISlEGoCHI4fa-2" target="Jm7EUICJISlEGoCHI4fa-4" edge="1">
          <mxGeometry x="0.0625" relative="1" as="geometry">
            <mxPoint x="190" y="300" as="sourcePoint" />
            <Array as="points">
              <mxPoint x="310" y="300" />
              <mxPoint x="285" y="300" />
              <mxPoint x="285" y="248" />
            </Array>
            <mxPoint x="375" y="300" as="targetPoint" />
            <mxPoint as="offset" />
          </mxGeometry>
        </mxCell>
        <mxCell id="Jm7EUICJISlEGoCHI4fa-29" value="UML Sequence Diagram:&amp;nbsp;&lt;div&gt;View Events and Event Details&lt;/div&gt;" style="text;html=1;align=center;verticalAlign=middle;whiteSpace=wrap;rounded=0;fontFamily=Helvetica;fontSize=36;fontStyle=5" parent="1" vertex="1">
          <mxGeometry x="159" y="28" width="533" height="110" as="geometry" />
        </mxCell>
        <mxCell id="Jm7EUICJISlEGoCHI4fa-30" value="Bit Benders" style="text;html=1;align=center;verticalAlign=middle;whiteSpace=wrap;rounded=0;fontStyle=2;fontSize=20;" parent="1" vertex="1">
          <mxGeometry x="291.13" y="128" width="266.99" height="40" as="geometry" />
        </mxCell>
        <mxCell id="Jm7EUICJISlEGoCHI4fa-31" value="Model" style="shape=umlLifeline;perimeter=lifelinePerimeter;whiteSpace=wrap;html=1;container=0;dropTarget=0;collapsible=0;recursiveResize=0;outlineConnect=0;portConstraint=eastwest;newEdgeStyle={&quot;edgeStyle&quot;:&quot;elbowEdgeStyle&quot;,&quot;elbow&quot;:&quot;vertical&quot;,&quot;curved&quot;:0,&quot;rounded&quot;:0};" parent="1" vertex="1">
          <mxGeometry x="660" y="200" width="100" height="400" as="geometry" />
        </mxCell>
        <mxCell id="Jm7EUICJISlEGoCHI4fa-32" value="" style="html=1;points=[];perimeter=orthogonalPerimeter;outlineConnect=0;targetShapes=umlLifeline;portConstraint=eastwest;newEdgeStyle={&quot;edgeStyle&quot;:&quot;elbowEdgeStyle&quot;,&quot;elbow&quot;:&quot;vertical&quot;,&quot;curved&quot;:0,&quot;rounded&quot;:0};" parent="Jm7EUICJISlEGoCHI4fa-31" vertex="1">
          <mxGeometry x="45" y="100" width="10" height="220" as="geometry" />
        </mxCell>
        <mxCell id="Jm7EUICJISlEGoCHI4fa-33" value="" style="rounded=0;whiteSpace=wrap;html=1;" parent="1" vertex="1">
          <mxGeometry x="546" y="327" width="10" height="39" as="geometry" />
        </mxCell>
        <mxCell id="Jm7EUICJISlEGoCHI4fa-34" value="&lt;font size=&quot;1&quot;&gt;Get all events in database&lt;/font&gt;" style="html=1;verticalAlign=bottom;endArrow=block;edgeStyle=elbowEdgeStyle;elbow=vertical;curved=0;rounded=0;" parent="1" target="Jm7EUICJISlEGoCHI4fa-32" edge="1">
          <mxGeometry x="-0.0051" relative="1" as="geometry">
            <mxPoint x="556" y="340" as="sourcePoint" />
            <Array as="points">
              <mxPoint x="610" y="340" />
              <mxPoint x="651" y="340" />
              <mxPoint x="651" y="288" />
            </Array>
            <mxPoint x="700" y="350" as="targetPoint" />
            <mxPoint as="offset" />
          </mxGeometry>
        </mxCell>
        <mxCell id="Jm7EUICJISlEGoCHI4fa-43" value="&lt;font size=&quot;1&quot;&gt;Events data&lt;/font&gt;" style="html=1;verticalAlign=bottom;endArrow=open;dashed=1;endSize=8;edgeStyle=elbowEdgeStyle;elbow=vertical;curved=0;rounded=0;" parent="1" edge="1" source="Jm7EUICJISlEGoCHI4fa-32">
          <mxGeometry x="0.0013" relative="1" as="geometry">
            <mxPoint x="556" y="360" as="targetPoint" />
            <Array as="points">
              <mxPoint x="584.36" y="360" />
            </Array>
            <mxPoint x="700" y="360" as="sourcePoint" />
            <mxPoint as="offset" />
          </mxGeometry>
        </mxCell>
        <mxCell id="Jm7EUICJISlEGoCHI4fa-53" value="User sees available events" style="text;html=1;align=center;verticalAlign=middle;whiteSpace=wrap;rounded=0;fontSize=10;" parent="1" vertex="1">
          <mxGeometry x="223.26" y="360" width="93.49" height="30" as="geometry" />
        </mxCell>
        <mxCell id="KUneRaZQZtuo-mIblkpJ-1" value="User clicks on &quot;Details&quot;&amp;nbsp;&lt;div&gt;button for event&lt;/div&gt;" style="html=1;verticalAlign=bottom;endArrow=block;edgeStyle=elbowEdgeStyle;elbow=horizontal;curved=0;rounded=0;fontSize=9;align=center;" edge="1" parent="1">
          <mxGeometry x="0.0625" relative="1" as="geometry">
            <mxPoint x="185" y="430" as="sourcePoint" />
            <Array as="points">
              <mxPoint x="310" y="430" />
              <mxPoint x="285" y="430" />
              <mxPoint x="285" y="378" />
            </Array>
            <mxPoint x="345" y="430" as="targetPoint" />
            <mxPoint as="offset" />
          </mxGeometry>
        </mxCell>
        <mxCell id="KUneRaZQZtuo-mIblkpJ-11" value="Selects &quot;Details&quot; for event" style="html=1;verticalAlign=bottom;endArrow=block;edgeStyle=elbowEdgeStyle;elbow=vertical;curved=0;rounded=0;" edge="1" parent="1">
          <mxGeometry x="0.027" relative="1" as="geometry">
            <mxPoint x="355" y="448" as="sourcePoint" />
            <Array as="points">
              <mxPoint x="540" y="448" />
              <mxPoint x="450" y="448" />
              <mxPoint x="450" y="396" />
            </Array>
            <mxPoint x="540" y="448" as="targetPoint" />
            <mxPoint as="offset" />
          </mxGeometry>
        </mxCell>
        <mxCell id="KUneRaZQZtuo-mIblkpJ-12" value="&quot;Details&quot; page for specific event" style="html=1;verticalAlign=bottom;endArrow=open;dashed=1;endSize=8;edgeStyle=elbowEdgeStyle;elbow=vertical;curved=0;rounded=0;entryX=0.864;entryY=0.648;entryDx=0;entryDy=0;entryPerimeter=0;align=center;fontSize=10;" edge="1" parent="1">
          <mxGeometry x="-0.0015" y="-4" relative="1" as="geometry">
            <mxPoint x="360.0000000000001" y="504.27200000000005" as="targetPoint" />
            <Array as="points">
              <mxPoint x="418.36" y="504" />
            </Array>
            <mxPoint x="540" y="504" as="sourcePoint" />
            <mxPoint as="offset" />
          </mxGeometry>
        </mxCell>
        <mxCell id="KUneRaZQZtuo-mIblkpJ-13" value="" style="rounded=0;whiteSpace=wrap;html=1;" vertex="1" parent="1">
          <mxGeometry x="350" y="440" width="10" height="70" as="geometry" />
        </mxCell>
        <mxCell id="KUneRaZQZtuo-mIblkpJ-14" value="" style="rounded=0;whiteSpace=wrap;html=1;" vertex="1" parent="1">
          <mxGeometry x="546" y="457" width="10" height="41" as="geometry" />
        </mxCell>
        <mxCell id="KUneRaZQZtuo-mIblkpJ-16" value="&lt;font size=&quot;1&quot;&gt;Get details for specific event&lt;/font&gt;" style="html=1;verticalAlign=bottom;endArrow=block;edgeStyle=elbowEdgeStyle;elbow=vertical;curved=0;rounded=0;" edge="1" parent="1">
          <mxGeometry x="-0.0051" relative="1" as="geometry">
            <mxPoint x="556" y="471" as="sourcePoint" />
            <Array as="points">
              <mxPoint x="610" y="471" />
              <mxPoint x="651" y="471" />
              <mxPoint x="651" y="419" />
            </Array>
            <mxPoint x="705" y="471" as="targetPoint" />
            <mxPoint as="offset" />
          </mxGeometry>
        </mxCell>
        <mxCell id="KUneRaZQZtuo-mIblkpJ-17" value="&lt;font size=&quot;1&quot;&gt;Event data&lt;/font&gt;" style="html=1;verticalAlign=bottom;endArrow=open;dashed=1;endSize=8;edgeStyle=elbowEdgeStyle;elbow=vertical;curved=0;rounded=0;" edge="1" parent="1">
          <mxGeometry x="0.0067" relative="1" as="geometry">
            <mxPoint x="556" y="491" as="targetPoint" />
            <Array as="points">
              <mxPoint x="584.36" y="491" />
            </Array>
            <mxPoint x="705" y="491" as="sourcePoint" />
            <mxPoint as="offset" />
          </mxGeometry>
        </mxCell>
        <mxCell id="KUneRaZQZtuo-mIblkpJ-18" value="" style="endArrow=classic;html=1;rounded=0;dashed=1;" edge="1" parent="1">
          <mxGeometry width="50" height="50" relative="1" as="geometry">
            <mxPoint x="346.5" y="520" as="sourcePoint" />
            <mxPoint x="185.5" y="520" as="targetPoint" />
          </mxGeometry>
        </mxCell>
        <mxCell id="KUneRaZQZtuo-mIblkpJ-19" value="User sees more detailed description for event" style="text;html=1;align=center;verticalAlign=middle;whiteSpace=wrap;rounded=0;fontSize=10;" vertex="1" parent="1">
          <mxGeometry x="207.39" y="490" width="125.24" height="30" as="geometry" />
        </mxCell>
      </root>
    </mxGraphModel>
  </diagram>
</mxfile>
